# xmcd
#
# Track frame offsets: 
#        150
#        12447
#        27897
#        39597
#        50847
#        64287
#        76735
#        87535
#        98485
#        111310
#        122185
#        136660
#        145962
#        154510
#        167332
#        178360
#
# Disc length: 2515 seconds
#
# Revision: 5
# Processed by: cddbd v1.5.2PL0 Copyright (c) Steve Scherf et al.
# Submitted via: ExactAudioCopy v1.3
#
DISCID=d409d110
DTITLE=Various Artist - Classic Rhythm And Blues Collection Vol. 2 1960-1963 
DTITLE=Disc 2
DYEAR=2000
DGENRE=R&B
TTITLE0=Dinah Washington And Brook Benton - Baby (You've Got What It T
TTITLE0=akes)
TTITLE1=Garnet Mimms - Cry Baby
TTITLE2=Barrett Strong - Money (That's What I Want)
TTITLE3=Ruby And The Romantics - Our Day Will Come
TTITLE4=Buster Brown - Fannie Mae
TTITLE5=Mary Wells - Two Lovers
TTITLE6=Barbara George - I Know (You Don't Love Me No More)
TTITLE7=Lee Dorsey - Ya Ya
TTITLE8=Booker T. And The MGs - Green Onions
TTITLE9=Claudine Clark - Party Lights
TTITLE10=Stevie Wonder - Fingertips Part 2
TTITLE11=Gladys Knight And The Pips - Every Beat Of My Heart
TTITLE12=Chiffons - He's So Fine
TTITLE13=Ike And Tina Turner - A Fool In Love
TTITLE14=Marvelettes - Please Mr. Postman
TTITLE15=Bobby Lewis - Tossin' And Turnin'
EXTD=
EXTT0=
EXTT1=
EXTT2=
EXTT3=
EXTT4=
EXTT5=
EXTT6=
EXTT7=
EXTT8=
EXTT9=
EXTT10=
EXTT11=
EXTT12=
EXTT13=
EXTT14=
EXTT15=
PLAYORDER=
